G04 #@! TF.FileFunction,Soldermask,Top*
%FSLAX46Y46*%
G04 Gerber Fmt 4.6, Leading zero omitted, Abs format (unit mm)*
G04 Created by KiCad (PCBNEW 4.0.4+e1-6308~48~ubuntu16.04.1-stable) date Mon Nov 28 22:29:59 2016*
%MOMM*%
%LPD*%
G01*
G04 APERTURE LIST*
%ADD10C,0.100000*%
%ADD11R,1.250000X0.880000*%
%ADD12R,1.924000X1.300000*%
%ADD13R,1.300000X2.400000*%
%ADD14R,2.630000X2.200000*%
%ADD15R,3.400000X1.500000*%
%ADD16R,2.432000X2.127200*%
%ADD17O,2.432000X2.127200*%
G04 APERTURE END LIST*
D10*
D11*
X134874000Y-138430000D03*
X134874000Y-139700000D03*
X134874000Y-140970000D03*
X134874000Y-142240000D03*
X142240000Y-138430000D03*
X142240000Y-139700000D03*
X142240000Y-140970000D03*
X142240000Y-142240000D03*
D12*
X143002000Y-136144000D03*
X143002000Y-132778500D03*
X138049000Y-136144000D03*
X138049000Y-132778500D03*
D13*
X137160000Y-144526000D03*
X138430000Y-144526000D03*
X139700000Y-144526000D03*
X140970000Y-144526000D03*
X142240000Y-144526000D03*
X143510000Y-144526000D03*
X144780000Y-144526000D03*
D14*
X144907000Y-141668000D03*
X144907000Y-138748000D03*
D11*
X161798000Y-138430000D03*
X161798000Y-139700000D03*
X161798000Y-140970000D03*
X161798000Y-142240000D03*
X169164000Y-138430000D03*
X169164000Y-139700000D03*
X169164000Y-140970000D03*
X169164000Y-142240000D03*
D12*
X169926000Y-136144000D03*
X169926000Y-132778500D03*
X164973000Y-136144000D03*
X164973000Y-132778500D03*
D13*
X164084000Y-144526000D03*
X165354000Y-144526000D03*
X166624000Y-144526000D03*
X167894000Y-144526000D03*
X169164000Y-144526000D03*
X170434000Y-144526000D03*
X171704000Y-144526000D03*
D14*
X171831000Y-141668000D03*
X171831000Y-138748000D03*
D15*
X131588000Y-140208000D03*
X131588000Y-138938000D03*
X131588000Y-137668000D03*
X131588000Y-136398000D03*
X131588000Y-135128000D03*
X131588000Y-133858000D03*
X131588000Y-132588000D03*
D16*
X126746000Y-124460000D03*
D17*
X126746000Y-121920000D03*
X126746000Y-119380000D03*
X126746000Y-116840000D03*
X126746000Y-114300000D03*
X126746000Y-111760000D03*
X126746000Y-109220000D03*
D15*
X131588000Y-120650000D03*
X131588000Y-119380000D03*
X131588000Y-118110000D03*
X131588000Y-116840000D03*
X131588000Y-115570000D03*
X131588000Y-114300000D03*
X131588000Y-113030000D03*
D16*
X126746000Y-144018000D03*
D17*
X126746000Y-141478000D03*
X126746000Y-138938000D03*
X126746000Y-136398000D03*
X126746000Y-133858000D03*
X126746000Y-131318000D03*
X126746000Y-128778000D03*
D14*
X136017000Y-111570000D03*
X136017000Y-114490000D03*
D13*
X143764000Y-108712000D03*
X142494000Y-108712000D03*
X141224000Y-108712000D03*
X139954000Y-108712000D03*
X138684000Y-108712000D03*
X137414000Y-108712000D03*
X136144000Y-108712000D03*
D12*
X137922000Y-117094000D03*
X137922000Y-120459500D03*
X142875000Y-117094000D03*
X142875000Y-120459500D03*
D11*
X146050000Y-114808000D03*
X146050000Y-113538000D03*
X146050000Y-112268000D03*
X146050000Y-110998000D03*
X138684000Y-114808000D03*
X138684000Y-113538000D03*
X138684000Y-112268000D03*
X138684000Y-110998000D03*
D14*
X149479000Y-111570000D03*
X149479000Y-114490000D03*
D13*
X157226000Y-108712000D03*
X155956000Y-108712000D03*
X154686000Y-108712000D03*
X153416000Y-108712000D03*
X152146000Y-108712000D03*
X150876000Y-108712000D03*
X149606000Y-108712000D03*
D12*
X151384000Y-117094000D03*
X151384000Y-120459500D03*
X156337000Y-117094000D03*
X156337000Y-120459500D03*
D11*
X159512000Y-114808000D03*
X159512000Y-113538000D03*
X159512000Y-112268000D03*
X159512000Y-110998000D03*
X152146000Y-114808000D03*
X152146000Y-113538000D03*
X152146000Y-112268000D03*
X152146000Y-110998000D03*
D14*
X162941000Y-111570000D03*
X162941000Y-114490000D03*
D13*
X170688000Y-108712000D03*
X169418000Y-108712000D03*
X168148000Y-108712000D03*
X166878000Y-108712000D03*
X165608000Y-108712000D03*
X164338000Y-108712000D03*
X163068000Y-108712000D03*
D12*
X164846000Y-117094000D03*
X164846000Y-120459500D03*
X169799000Y-117094000D03*
X169799000Y-120459500D03*
D11*
X172974000Y-114808000D03*
X172974000Y-113538000D03*
X172974000Y-112268000D03*
X172974000Y-110998000D03*
X165608000Y-114808000D03*
X165608000Y-113538000D03*
X165608000Y-112268000D03*
X165608000Y-110998000D03*
D14*
X149479000Y-111570000D03*
X149479000Y-114490000D03*
D13*
X157226000Y-108712000D03*
X155956000Y-108712000D03*
X154686000Y-108712000D03*
X153416000Y-108712000D03*
X152146000Y-108712000D03*
X150876000Y-108712000D03*
X149606000Y-108712000D03*
D12*
X151384000Y-117094000D03*
X151384000Y-120459500D03*
X156337000Y-117094000D03*
X156337000Y-120459500D03*
D11*
X159512000Y-114808000D03*
X159512000Y-113538000D03*
X159512000Y-112268000D03*
X159512000Y-110998000D03*
X152146000Y-114808000D03*
X152146000Y-113538000D03*
X152146000Y-112268000D03*
X152146000Y-110998000D03*
D14*
X158369000Y-141668000D03*
X158369000Y-138748000D03*
D13*
X150622000Y-144526000D03*
X151892000Y-144526000D03*
X153162000Y-144526000D03*
X154432000Y-144526000D03*
X155702000Y-144526000D03*
X156972000Y-144526000D03*
X158242000Y-144526000D03*
D12*
X156464000Y-136144000D03*
X156464000Y-132778500D03*
X151511000Y-136144000D03*
X151511000Y-132778500D03*
D11*
X148336000Y-138430000D03*
X148336000Y-139700000D03*
X148336000Y-140970000D03*
X148336000Y-142240000D03*
X155702000Y-138430000D03*
X155702000Y-139700000D03*
X155702000Y-140970000D03*
X155702000Y-142240000D03*
M02*
