G04 #@! TF.FileFunction,Copper,L1,Top,Signal*
%FSLAX46Y46*%
G04 Gerber Fmt 4.6, Leading zero omitted, Abs format (unit mm)*
G04 Created by KiCad (PCBNEW 4.0.4+e1-6308~48~ubuntu16.04.1-stable) date Mon Nov 28 22:29:59 2016*
%MOMM*%
%LPD*%
G01*
G04 APERTURE LIST*
%ADD10C,0.100000*%
%ADD11R,0.850000X0.480000*%
%ADD12R,1.524000X0.900000*%
%ADD13R,0.900000X2.000000*%
%ADD14R,2.230000X1.800000*%
%ADD15R,3.000000X1.100000*%
%ADD16R,2.032000X1.727200*%
%ADD17O,2.032000X1.727200*%
%ADD18C,0.600000*%
%ADD19C,0.250000*%
G04 APERTURE END LIST*
D10*
D11*
X134874000Y-138430000D03*
X134874000Y-139700000D03*
X134874000Y-140970000D03*
X134874000Y-142240000D03*
X142240000Y-138430000D03*
X142240000Y-139700000D03*
X142240000Y-140970000D03*
X142240000Y-142240000D03*
D12*
X143002000Y-136144000D03*
X143002000Y-132778500D03*
X138049000Y-136144000D03*
X138049000Y-132778500D03*
D13*
X137160000Y-144526000D03*
X138430000Y-144526000D03*
X139700000Y-144526000D03*
X140970000Y-144526000D03*
X142240000Y-144526000D03*
X143510000Y-144526000D03*
X144780000Y-144526000D03*
D14*
X144907000Y-141668000D03*
X144907000Y-138748000D03*
D11*
X161798000Y-138430000D03*
X161798000Y-139700000D03*
X161798000Y-140970000D03*
X161798000Y-142240000D03*
X169164000Y-138430000D03*
X169164000Y-139700000D03*
X169164000Y-140970000D03*
X169164000Y-142240000D03*
D12*
X169926000Y-136144000D03*
X169926000Y-132778500D03*
X164973000Y-136144000D03*
X164973000Y-132778500D03*
D13*
X164084000Y-144526000D03*
X165354000Y-144526000D03*
X166624000Y-144526000D03*
X167894000Y-144526000D03*
X169164000Y-144526000D03*
X170434000Y-144526000D03*
X171704000Y-144526000D03*
D14*
X171831000Y-141668000D03*
X171831000Y-138748000D03*
D15*
X131588000Y-140208000D03*
X131588000Y-138938000D03*
X131588000Y-137668000D03*
X131588000Y-136398000D03*
X131588000Y-135128000D03*
X131588000Y-133858000D03*
X131588000Y-132588000D03*
D16*
X126746000Y-124460000D03*
D17*
X126746000Y-121920000D03*
X126746000Y-119380000D03*
X126746000Y-116840000D03*
X126746000Y-114300000D03*
X126746000Y-111760000D03*
X126746000Y-109220000D03*
D15*
X131588000Y-120650000D03*
X131588000Y-119380000D03*
X131588000Y-118110000D03*
X131588000Y-116840000D03*
X131588000Y-115570000D03*
X131588000Y-114300000D03*
X131588000Y-113030000D03*
D16*
X126746000Y-144018000D03*
D17*
X126746000Y-141478000D03*
X126746000Y-138938000D03*
X126746000Y-136398000D03*
X126746000Y-133858000D03*
X126746000Y-131318000D03*
X126746000Y-128778000D03*
D14*
X136017000Y-111570000D03*
X136017000Y-114490000D03*
D13*
X143764000Y-108712000D03*
X142494000Y-108712000D03*
X141224000Y-108712000D03*
X139954000Y-108712000D03*
X138684000Y-108712000D03*
X137414000Y-108712000D03*
X136144000Y-108712000D03*
D12*
X137922000Y-117094000D03*
X137922000Y-120459500D03*
X142875000Y-117094000D03*
X142875000Y-120459500D03*
D11*
X146050000Y-114808000D03*
X146050000Y-113538000D03*
X146050000Y-112268000D03*
X146050000Y-110998000D03*
X138684000Y-114808000D03*
X138684000Y-113538000D03*
X138684000Y-112268000D03*
X138684000Y-110998000D03*
D14*
X149479000Y-111570000D03*
X149479000Y-114490000D03*
D13*
X157226000Y-108712000D03*
X155956000Y-108712000D03*
X154686000Y-108712000D03*
X153416000Y-108712000D03*
X152146000Y-108712000D03*
X150876000Y-108712000D03*
X149606000Y-108712000D03*
D12*
X151384000Y-117094000D03*
X151384000Y-120459500D03*
X156337000Y-117094000D03*
X156337000Y-120459500D03*
D11*
X159512000Y-114808000D03*
X159512000Y-113538000D03*
X159512000Y-112268000D03*
X159512000Y-110998000D03*
X152146000Y-114808000D03*
X152146000Y-113538000D03*
X152146000Y-112268000D03*
X152146000Y-110998000D03*
D14*
X162941000Y-111570000D03*
X162941000Y-114490000D03*
D13*
X170688000Y-108712000D03*
X169418000Y-108712000D03*
X168148000Y-108712000D03*
X166878000Y-108712000D03*
X165608000Y-108712000D03*
X164338000Y-108712000D03*
X163068000Y-108712000D03*
D12*
X164846000Y-117094000D03*
X164846000Y-120459500D03*
X169799000Y-117094000D03*
X169799000Y-120459500D03*
D11*
X172974000Y-114808000D03*
X172974000Y-113538000D03*
X172974000Y-112268000D03*
X172974000Y-110998000D03*
X165608000Y-114808000D03*
X165608000Y-113538000D03*
X165608000Y-112268000D03*
X165608000Y-110998000D03*
D14*
X149479000Y-111570000D03*
X149479000Y-114490000D03*
D13*
X157226000Y-108712000D03*
X155956000Y-108712000D03*
X154686000Y-108712000D03*
X153416000Y-108712000D03*
X152146000Y-108712000D03*
X150876000Y-108712000D03*
X149606000Y-108712000D03*
D12*
X151384000Y-117094000D03*
X151384000Y-120459500D03*
X156337000Y-117094000D03*
X156337000Y-120459500D03*
D11*
X159512000Y-114808000D03*
X159512000Y-113538000D03*
X159512000Y-112268000D03*
X159512000Y-110998000D03*
X152146000Y-114808000D03*
X152146000Y-113538000D03*
X152146000Y-112268000D03*
X152146000Y-110998000D03*
D14*
X158369000Y-141668000D03*
X158369000Y-138748000D03*
D13*
X150622000Y-144526000D03*
X151892000Y-144526000D03*
X153162000Y-144526000D03*
X154432000Y-144526000D03*
X155702000Y-144526000D03*
X156972000Y-144526000D03*
X158242000Y-144526000D03*
D12*
X156464000Y-136144000D03*
X156464000Y-132778500D03*
X151511000Y-136144000D03*
X151511000Y-132778500D03*
D11*
X148336000Y-138430000D03*
X148336000Y-139700000D03*
X148336000Y-140970000D03*
X148336000Y-142240000D03*
X155702000Y-138430000D03*
X155702000Y-139700000D03*
X155702000Y-140970000D03*
X155702000Y-142240000D03*
D18*
X144714700Y-140160400D03*
X139577000Y-139264600D03*
X171638700Y-140160400D03*
X166501000Y-139264600D03*
X154809000Y-113973400D03*
X141347000Y-113973400D03*
X136209300Y-113077600D03*
X149671300Y-113077600D03*
X168271000Y-113973400D03*
X163133300Y-113077600D03*
X154809000Y-113973400D03*
X149671300Y-113077600D03*
X153039000Y-139264600D03*
X158176700Y-140160400D03*
X140196400Y-140515400D03*
X141729600Y-136329100D03*
X167120400Y-140515400D03*
X168653600Y-136329100D03*
X139194400Y-116908900D03*
X140727600Y-112722600D03*
X152656400Y-116908900D03*
X154189600Y-112722600D03*
X166118400Y-116908900D03*
X167651600Y-112722600D03*
X152656400Y-116908900D03*
X154189600Y-112722600D03*
X155191600Y-136329100D03*
X153658400Y-140515400D03*
X137312400Y-143024400D03*
X164236400Y-143024400D03*
X143611600Y-110213600D03*
X157073600Y-110213600D03*
X170535600Y-110213600D03*
X157073600Y-110213600D03*
X150774400Y-143024400D03*
X140454700Y-142431600D03*
X167378700Y-142431600D03*
X140469300Y-110806400D03*
X153931300Y-110806400D03*
X167393300Y-110806400D03*
X153931300Y-110806400D03*
X153916700Y-142431600D03*
X139700000Y-142996500D03*
X166624000Y-142996500D03*
X141224000Y-110241500D03*
X154686000Y-110241500D03*
X168148000Y-110241500D03*
X154686000Y-110241500D03*
X153162000Y-142996500D03*
X135811800Y-139508700D03*
X162735800Y-139508700D03*
X149273800Y-139508700D03*
X158574200Y-113729300D03*
X145112200Y-113729300D03*
X172036200Y-113729300D03*
X158574200Y-113729300D03*
D19*
X126746000Y-114300000D02*
X127508000Y-114300000D01*
X127000000Y-116586000D02*
X126746000Y-116840000D01*
X126746000Y-133858000D02*
X127508000Y-133858000D01*
X127000000Y-136144000D02*
X126746000Y-136398000D01*
X135624300Y-140970000D02*
X136961700Y-139632600D01*
X136961700Y-139632600D02*
X136961700Y-136144000D01*
X138049000Y-136144000D02*
X136961700Y-136144000D01*
X134874000Y-140970000D02*
X135624300Y-140970000D01*
X162548300Y-140970000D02*
X163885700Y-139632600D01*
X163885700Y-139632600D02*
X163885700Y-136144000D01*
X164973000Y-136144000D02*
X163885700Y-136144000D01*
X161798000Y-140970000D02*
X162548300Y-140970000D01*
X143962300Y-113605400D02*
X143962300Y-117094000D01*
X145299700Y-112268000D02*
X143962300Y-113605400D01*
X146050000Y-112268000D02*
X145299700Y-112268000D01*
X142875000Y-117094000D02*
X143962300Y-117094000D01*
X157424300Y-113605400D02*
X157424300Y-117094000D01*
X158761700Y-112268000D02*
X157424300Y-113605400D01*
X159512000Y-112268000D02*
X158761700Y-112268000D01*
X156337000Y-117094000D02*
X157424300Y-117094000D01*
X170886300Y-113605400D02*
X170886300Y-117094000D01*
X172223700Y-112268000D02*
X170886300Y-113605400D01*
X172974000Y-112268000D02*
X172223700Y-112268000D01*
X169799000Y-117094000D02*
X170886300Y-117094000D01*
X156337000Y-117094000D02*
X157424300Y-117094000D01*
X157424300Y-113605400D02*
X157424300Y-117094000D01*
X158761700Y-112268000D02*
X157424300Y-113605400D01*
X159512000Y-112268000D02*
X158761700Y-112268000D01*
X148336000Y-140970000D02*
X149086300Y-140970000D01*
X151511000Y-136144000D02*
X150423700Y-136144000D01*
X150423700Y-139632600D02*
X150423700Y-136144000D01*
X149086300Y-140970000D02*
X150423700Y-139632600D01*
X144907000Y-141668000D02*
X144907000Y-140442700D01*
X144714700Y-140160400D02*
X144714700Y-140250400D01*
X144714700Y-140250400D02*
X144907000Y-140442700D01*
X144907000Y-142053700D02*
X143760000Y-143200700D01*
X143760000Y-143200700D02*
X143510000Y-143200700D01*
X139577000Y-139264600D02*
X139136300Y-139264600D01*
X139136300Y-139264600D02*
X138599700Y-139264600D01*
X138599700Y-139264600D02*
X135624300Y-142240000D01*
X139136300Y-139264600D02*
X139136300Y-132778500D01*
X138049000Y-132778500D02*
X139136300Y-132778500D01*
X134874000Y-142240000D02*
X135624300Y-142240000D01*
X143510000Y-144526000D02*
X143510000Y-143200700D01*
X144907000Y-141668000D02*
X144907000Y-142053700D01*
X171831000Y-141668000D02*
X171831000Y-140442700D01*
X171638700Y-140160400D02*
X171638700Y-140250400D01*
X171638700Y-140250400D02*
X171831000Y-140442700D01*
X171831000Y-142053700D02*
X170684000Y-143200700D01*
X170684000Y-143200700D02*
X170434000Y-143200700D01*
X166501000Y-139264600D02*
X166060300Y-139264600D01*
X166060300Y-139264600D02*
X165523700Y-139264600D01*
X165523700Y-139264600D02*
X162548300Y-142240000D01*
X166060300Y-139264600D02*
X166060300Y-132778500D01*
X164973000Y-132778500D02*
X166060300Y-132778500D01*
X161798000Y-142240000D02*
X162548300Y-142240000D01*
X170434000Y-144526000D02*
X170434000Y-143200700D01*
X171831000Y-141668000D02*
X171831000Y-142053700D01*
X155249700Y-113973400D02*
X155249700Y-120459500D01*
X155249700Y-113973400D02*
X155786300Y-113973400D01*
X154809000Y-113973400D02*
X155249700Y-113973400D01*
X136017000Y-111570000D02*
X136017000Y-111184300D01*
X137414000Y-108712000D02*
X137414000Y-110037300D01*
X146050000Y-110998000D02*
X145299700Y-110998000D01*
X142875000Y-120459500D02*
X141787700Y-120459500D01*
X141787700Y-113973400D02*
X141787700Y-120459500D01*
X142324300Y-113973400D02*
X145299700Y-110998000D01*
X141787700Y-113973400D02*
X142324300Y-113973400D01*
X141347000Y-113973400D02*
X141787700Y-113973400D01*
X137164000Y-110037300D02*
X137414000Y-110037300D01*
X136017000Y-111184300D02*
X137164000Y-110037300D01*
X136209300Y-112987600D02*
X136017000Y-112795300D01*
X136209300Y-113077600D02*
X136209300Y-112987600D01*
X136017000Y-111570000D02*
X136017000Y-112795300D01*
X149479000Y-111570000D02*
X149479000Y-111184300D01*
X150876000Y-108712000D02*
X150876000Y-110037300D01*
X159512000Y-110998000D02*
X158761700Y-110998000D01*
X156337000Y-120459500D02*
X155249700Y-120459500D01*
X155786300Y-113973400D02*
X158761700Y-110998000D01*
X150626000Y-110037300D02*
X150876000Y-110037300D01*
X149479000Y-111184300D02*
X150626000Y-110037300D01*
X149671300Y-112987600D02*
X149479000Y-112795300D01*
X149671300Y-113077600D02*
X149671300Y-112987600D01*
X149479000Y-111570000D02*
X149479000Y-112795300D01*
X162941000Y-111570000D02*
X162941000Y-111184300D01*
X164338000Y-108712000D02*
X164338000Y-110037300D01*
X172974000Y-110998000D02*
X172223700Y-110998000D01*
X169799000Y-120459500D02*
X168711700Y-120459500D01*
X168711700Y-113973400D02*
X168711700Y-120459500D01*
X169248300Y-113973400D02*
X172223700Y-110998000D01*
X168711700Y-113973400D02*
X169248300Y-113973400D01*
X168271000Y-113973400D02*
X168711700Y-113973400D01*
X164088000Y-110037300D02*
X164338000Y-110037300D01*
X162941000Y-111184300D02*
X164088000Y-110037300D01*
X163133300Y-112987600D02*
X162941000Y-112795300D01*
X163133300Y-113077600D02*
X163133300Y-112987600D01*
X162941000Y-111570000D02*
X162941000Y-112795300D01*
X149479000Y-111570000D02*
X149479000Y-111184300D01*
X150876000Y-108712000D02*
X150876000Y-110037300D01*
X159512000Y-110998000D02*
X158761700Y-110998000D01*
X156337000Y-120459500D02*
X155249700Y-120459500D01*
X155249700Y-113973400D02*
X155249700Y-120459500D01*
X155786300Y-113973400D02*
X158761700Y-110998000D01*
X155249700Y-113973400D02*
X155786300Y-113973400D01*
X150626000Y-110037300D02*
X150876000Y-110037300D01*
X149479000Y-111184300D02*
X150626000Y-110037300D01*
X149479000Y-111570000D02*
X149479000Y-112795300D01*
X154809000Y-113973400D02*
X155249700Y-113973400D01*
X149671300Y-112987600D02*
X149479000Y-112795300D01*
X149671300Y-113077600D02*
X149671300Y-112987600D01*
X158369000Y-141668000D02*
X158369000Y-142053700D01*
X156972000Y-144526000D02*
X156972000Y-143200700D01*
X148336000Y-142240000D02*
X149086300Y-142240000D01*
X151511000Y-132778500D02*
X152598300Y-132778500D01*
X152598300Y-139264600D02*
X152598300Y-132778500D01*
X152061700Y-139264600D02*
X149086300Y-142240000D01*
X152598300Y-139264600D02*
X152061700Y-139264600D01*
X153039000Y-139264600D02*
X152598300Y-139264600D01*
X157222000Y-143200700D02*
X156972000Y-143200700D01*
X158369000Y-142053700D02*
X157222000Y-143200700D01*
X158176700Y-140250400D02*
X158369000Y-140442700D01*
X158176700Y-140160400D02*
X158176700Y-140250400D01*
X158369000Y-141668000D02*
X158369000Y-140442700D01*
X140196400Y-140515400D02*
X138213000Y-142498800D01*
X138213000Y-142498800D02*
X138213000Y-144309000D01*
X141489700Y-138430000D02*
X141489700Y-139222100D01*
X141489700Y-139222100D02*
X140196400Y-140515400D01*
X141729600Y-136329100D02*
X141914700Y-136144000D01*
X142240000Y-138430000D02*
X141489700Y-138430000D01*
X138213000Y-144309000D02*
X138430000Y-144526000D01*
X143002000Y-136144000D02*
X141914700Y-136144000D01*
X144907000Y-138748000D02*
X144907000Y-137522700D01*
X143002000Y-136144000D02*
X144089300Y-136144000D01*
X144089300Y-136144000D02*
X144089300Y-136705000D01*
X144089300Y-136705000D02*
X144907000Y-137522700D01*
X167120400Y-140515400D02*
X165137000Y-142498800D01*
X165137000Y-142498800D02*
X165137000Y-144309000D01*
X168413700Y-138430000D02*
X168413700Y-139222100D01*
X168413700Y-139222100D02*
X167120400Y-140515400D01*
X168653600Y-136329100D02*
X168838700Y-136144000D01*
X169164000Y-138430000D02*
X168413700Y-138430000D01*
X165137000Y-144309000D02*
X165354000Y-144526000D01*
X169926000Y-136144000D02*
X168838700Y-136144000D01*
X171831000Y-138748000D02*
X171831000Y-137522700D01*
X169926000Y-136144000D02*
X171013300Y-136144000D01*
X171013300Y-136144000D02*
X171013300Y-136705000D01*
X171013300Y-136705000D02*
X171831000Y-137522700D01*
X136834700Y-116533000D02*
X136017000Y-115715300D01*
X136834700Y-117094000D02*
X136834700Y-116533000D01*
X137922000Y-117094000D02*
X136834700Y-117094000D01*
X136017000Y-114490000D02*
X136017000Y-115715300D01*
X137922000Y-117094000D02*
X139009300Y-117094000D01*
X142711000Y-108929000D02*
X142494000Y-108712000D01*
X138684000Y-114808000D02*
X139434300Y-114808000D01*
X139194400Y-116908900D02*
X139009300Y-117094000D01*
X139434300Y-114015900D02*
X140727600Y-112722600D01*
X139434300Y-114808000D02*
X139434300Y-114015900D01*
X142711000Y-110739200D02*
X142711000Y-108929000D01*
X140727600Y-112722600D02*
X142711000Y-110739200D01*
X150296700Y-116533000D02*
X149479000Y-115715300D01*
X150296700Y-117094000D02*
X150296700Y-116533000D01*
X151384000Y-117094000D02*
X150296700Y-117094000D01*
X149479000Y-114490000D02*
X149479000Y-115715300D01*
X151384000Y-117094000D02*
X152471300Y-117094000D01*
X156173000Y-108929000D02*
X155956000Y-108712000D01*
X152146000Y-114808000D02*
X152896300Y-114808000D01*
X152656400Y-116908900D02*
X152471300Y-117094000D01*
X152896300Y-114015900D02*
X154189600Y-112722600D01*
X152896300Y-114808000D02*
X152896300Y-114015900D01*
X156173000Y-110739200D02*
X156173000Y-108929000D01*
X154189600Y-112722600D02*
X156173000Y-110739200D01*
X163758700Y-116533000D02*
X162941000Y-115715300D01*
X163758700Y-117094000D02*
X163758700Y-116533000D01*
X164846000Y-117094000D02*
X163758700Y-117094000D01*
X162941000Y-114490000D02*
X162941000Y-115715300D01*
X164846000Y-117094000D02*
X165933300Y-117094000D01*
X169635000Y-108929000D02*
X169418000Y-108712000D01*
X165608000Y-114808000D02*
X166358300Y-114808000D01*
X166118400Y-116908900D02*
X165933300Y-117094000D01*
X166358300Y-114015900D02*
X167651600Y-112722600D01*
X166358300Y-114808000D02*
X166358300Y-114015900D01*
X169635000Y-110739200D02*
X169635000Y-108929000D01*
X167651600Y-112722600D02*
X169635000Y-110739200D01*
X150296700Y-116533000D02*
X149479000Y-115715300D01*
X150296700Y-117094000D02*
X150296700Y-116533000D01*
X151384000Y-117094000D02*
X150296700Y-117094000D01*
X149479000Y-114490000D02*
X149479000Y-115715300D01*
X151384000Y-117094000D02*
X152471300Y-117094000D01*
X156173000Y-108929000D02*
X155956000Y-108712000D01*
X152146000Y-114808000D02*
X152896300Y-114808000D01*
X152656400Y-116908900D02*
X152471300Y-117094000D01*
X152896300Y-114015900D02*
X154189600Y-112722600D01*
X152896300Y-114808000D02*
X152896300Y-114015900D01*
X156173000Y-110739200D02*
X156173000Y-108929000D01*
X154189600Y-112722600D02*
X156173000Y-110739200D01*
X157551300Y-136705000D02*
X158369000Y-137522700D01*
X157551300Y-136144000D02*
X157551300Y-136705000D01*
X156464000Y-136144000D02*
X157551300Y-136144000D01*
X158369000Y-138748000D02*
X158369000Y-137522700D01*
X156464000Y-136144000D02*
X155376700Y-136144000D01*
X151675000Y-144309000D02*
X151892000Y-144526000D01*
X155702000Y-138430000D02*
X154951700Y-138430000D01*
X155191600Y-136329100D02*
X155376700Y-136144000D01*
X154951700Y-139222100D02*
X153658400Y-140515400D01*
X154951700Y-138430000D02*
X154951700Y-139222100D01*
X151675000Y-142498800D02*
X151675000Y-144309000D01*
X153658400Y-140515400D02*
X151675000Y-142498800D01*
X142240000Y-142240000D02*
X142990300Y-142240000D01*
X142990300Y-142240000D02*
X142990300Y-138016000D01*
X142990300Y-138016000D02*
X142823500Y-137849200D01*
X142823500Y-137849200D02*
X141433600Y-137849200D01*
X141433600Y-137849200D02*
X140780100Y-138502700D01*
X140780100Y-138502700D02*
X140780100Y-138964000D01*
X140780100Y-138964000D02*
X137312400Y-142431700D01*
X137312400Y-142431700D02*
X137312400Y-143024400D01*
X137312400Y-143024400D02*
X137312400Y-143048300D01*
X137312400Y-143048300D02*
X137160000Y-143200700D01*
X137160000Y-144526000D02*
X137160000Y-143200700D01*
X169164000Y-142240000D02*
X169914300Y-142240000D01*
X169914300Y-142240000D02*
X169914300Y-138016000D01*
X169914300Y-138016000D02*
X169747500Y-137849200D01*
X169747500Y-137849200D02*
X168357600Y-137849200D01*
X168357600Y-137849200D02*
X167704100Y-138502700D01*
X167704100Y-138502700D02*
X167704100Y-138964000D01*
X167704100Y-138964000D02*
X164236400Y-142431700D01*
X164236400Y-142431700D02*
X164236400Y-143024400D01*
X164236400Y-143024400D02*
X164236400Y-143048300D01*
X164236400Y-143048300D02*
X164084000Y-143200700D01*
X164084000Y-144526000D02*
X164084000Y-143200700D01*
X143764000Y-108712000D02*
X143764000Y-110037300D01*
X143611600Y-110189700D02*
X143764000Y-110037300D01*
X143611600Y-110213600D02*
X143611600Y-110189700D01*
X143611600Y-110806300D02*
X143611600Y-110213600D01*
X140143900Y-114274000D02*
X143611600Y-110806300D01*
X140143900Y-114735300D02*
X140143900Y-114274000D01*
X139490400Y-115388800D02*
X140143900Y-114735300D01*
X138100500Y-115388800D02*
X139490400Y-115388800D01*
X137933700Y-115222000D02*
X138100500Y-115388800D01*
X137933700Y-110998000D02*
X137933700Y-115222000D01*
X138684000Y-110998000D02*
X137933700Y-110998000D01*
X157226000Y-108712000D02*
X157226000Y-110037300D01*
X157073600Y-110189700D02*
X157226000Y-110037300D01*
X157073600Y-110213600D02*
X157073600Y-110189700D01*
X157073600Y-110806300D02*
X157073600Y-110213600D01*
X153605900Y-114274000D02*
X157073600Y-110806300D01*
X153605900Y-114735300D02*
X153605900Y-114274000D01*
X152952400Y-115388800D02*
X153605900Y-114735300D01*
X151562500Y-115388800D02*
X152952400Y-115388800D01*
X151395700Y-115222000D02*
X151562500Y-115388800D01*
X170688000Y-108712000D02*
X170688000Y-110037300D01*
X170535600Y-110189700D02*
X170688000Y-110037300D01*
X170535600Y-110213600D02*
X170535600Y-110189700D01*
X170535600Y-110806300D02*
X170535600Y-110213600D01*
X167067900Y-114274000D02*
X170535600Y-110806300D01*
X167067900Y-114735300D02*
X167067900Y-114274000D01*
X166414400Y-115388800D02*
X167067900Y-114735300D01*
X165024500Y-115388800D02*
X166414400Y-115388800D01*
X164857700Y-115222000D02*
X165024500Y-115388800D01*
X164857700Y-110998000D02*
X164857700Y-115222000D01*
X165608000Y-110998000D02*
X164857700Y-110998000D01*
X157226000Y-108712000D02*
X157226000Y-110037300D01*
X157073600Y-110189700D02*
X157226000Y-110037300D01*
X157073600Y-110213600D02*
X157073600Y-110189700D01*
X157073600Y-110806300D02*
X157073600Y-110213600D01*
X153605900Y-114274000D02*
X157073600Y-110806300D01*
X153605900Y-114735300D02*
X153605900Y-114274000D01*
X152952400Y-115388800D02*
X153605900Y-114735300D01*
X151562500Y-115388800D02*
X152952400Y-115388800D01*
X151395700Y-115222000D02*
X151562500Y-115388800D01*
X151395700Y-110998000D02*
X151395700Y-115222000D01*
X152146000Y-110998000D02*
X151395700Y-110998000D01*
X151395700Y-110998000D02*
X151395700Y-115222000D01*
X152146000Y-110998000D02*
X151395700Y-110998000D01*
X150622000Y-144526000D02*
X150622000Y-143200700D01*
X150774400Y-143048300D02*
X150622000Y-143200700D01*
X150774400Y-143024400D02*
X150774400Y-143048300D01*
X150774400Y-142431700D02*
X150774400Y-143024400D01*
X154242100Y-138964000D02*
X150774400Y-142431700D01*
X154242100Y-138502700D02*
X154242100Y-138964000D01*
X154895600Y-137849200D02*
X154242100Y-138502700D01*
X156285500Y-137849200D02*
X154895600Y-137849200D01*
X156452300Y-138016000D02*
X156285500Y-137849200D01*
X156452300Y-142240000D02*
X156452300Y-138016000D01*
X155702000Y-142240000D02*
X156452300Y-142240000D01*
X142240000Y-144526000D02*
X142240000Y-143200700D01*
X134874000Y-138430000D02*
X135624300Y-138430000D01*
X135624300Y-138430000D02*
X135624300Y-133500500D01*
X135624300Y-133500500D02*
X137121700Y-132003100D01*
X137121700Y-132003100D02*
X139036400Y-132003100D01*
X139036400Y-132003100D02*
X141093000Y-134059700D01*
X141093000Y-134059700D02*
X141093000Y-136592500D01*
X141093000Y-136592500D02*
X141869500Y-137369000D01*
X141869500Y-137369000D02*
X142988700Y-137369000D01*
X142988700Y-137369000D02*
X143440700Y-137821000D01*
X143440700Y-137821000D02*
X143440700Y-142465200D01*
X143440700Y-142465200D02*
X142705200Y-143200700D01*
X142705200Y-143200700D02*
X142240000Y-143200700D01*
X169164000Y-144526000D02*
X169164000Y-143200700D01*
X161798000Y-138430000D02*
X162548300Y-138430000D01*
X162548300Y-138430000D02*
X162548300Y-133500500D01*
X162548300Y-133500500D02*
X164045700Y-132003100D01*
X164045700Y-132003100D02*
X165960400Y-132003100D01*
X165960400Y-132003100D02*
X168017000Y-134059700D01*
X168017000Y-134059700D02*
X168017000Y-136592500D01*
X168017000Y-136592500D02*
X168793500Y-137369000D01*
X168793500Y-137369000D02*
X169912700Y-137369000D01*
X169912700Y-137369000D02*
X170364700Y-137821000D01*
X170364700Y-137821000D02*
X170364700Y-142465200D01*
X170364700Y-142465200D02*
X169629200Y-143200700D01*
X169629200Y-143200700D02*
X169164000Y-143200700D01*
X153293000Y-119178300D02*
X153293000Y-116645500D01*
X155349600Y-121234900D02*
X153293000Y-119178300D01*
X157264300Y-121234900D02*
X155349600Y-121234900D01*
X158761700Y-119737500D02*
X157264300Y-121234900D01*
X158761700Y-114808000D02*
X158761700Y-119737500D01*
X138218800Y-110037300D02*
X138684000Y-110037300D01*
X137483300Y-110772800D02*
X138218800Y-110037300D01*
X137483300Y-115417000D02*
X137483300Y-110772800D01*
X137935300Y-115869000D02*
X137483300Y-115417000D01*
X139054500Y-115869000D02*
X137935300Y-115869000D01*
X139831000Y-116645500D02*
X139054500Y-115869000D01*
X139831000Y-119178300D02*
X139831000Y-116645500D01*
X141887600Y-121234900D02*
X139831000Y-119178300D01*
X143802300Y-121234900D02*
X141887600Y-121234900D01*
X145299700Y-119737500D02*
X143802300Y-121234900D01*
X145299700Y-114808000D02*
X145299700Y-119737500D01*
X146050000Y-114808000D02*
X145299700Y-114808000D01*
X138684000Y-108712000D02*
X138684000Y-110037300D01*
X151680800Y-110037300D02*
X152146000Y-110037300D01*
X150945300Y-110772800D02*
X151680800Y-110037300D01*
X150945300Y-115417000D02*
X150945300Y-110772800D01*
X151397300Y-115869000D02*
X150945300Y-115417000D01*
X152516500Y-115869000D02*
X151397300Y-115869000D01*
X153293000Y-116645500D02*
X152516500Y-115869000D01*
X153293000Y-119178300D02*
X153293000Y-116645500D01*
X155349600Y-121234900D02*
X153293000Y-119178300D01*
X157264300Y-121234900D02*
X155349600Y-121234900D01*
X158761700Y-119737500D02*
X157264300Y-121234900D01*
X158761700Y-114808000D02*
X158761700Y-119737500D01*
X159512000Y-114808000D02*
X158761700Y-114808000D01*
X152146000Y-108712000D02*
X152146000Y-110037300D01*
X165142800Y-110037300D02*
X165608000Y-110037300D01*
X164407300Y-110772800D02*
X165142800Y-110037300D01*
X164407300Y-115417000D02*
X164407300Y-110772800D01*
X164859300Y-115869000D02*
X164407300Y-115417000D01*
X165978500Y-115869000D02*
X164859300Y-115869000D01*
X166755000Y-116645500D02*
X165978500Y-115869000D01*
X166755000Y-119178300D02*
X166755000Y-116645500D01*
X168811600Y-121234900D02*
X166755000Y-119178300D01*
X170726300Y-121234900D02*
X168811600Y-121234900D01*
X172223700Y-119737500D02*
X170726300Y-121234900D01*
X172223700Y-114808000D02*
X172223700Y-119737500D01*
X172974000Y-114808000D02*
X172223700Y-114808000D01*
X165608000Y-108712000D02*
X165608000Y-110037300D01*
X151680800Y-110037300D02*
X152146000Y-110037300D01*
X150945300Y-110772800D02*
X151680800Y-110037300D01*
X150945300Y-115417000D02*
X150945300Y-110772800D01*
X151397300Y-115869000D02*
X150945300Y-115417000D01*
X152516500Y-115869000D02*
X151397300Y-115869000D01*
X153293000Y-116645500D02*
X152516500Y-115869000D01*
X159512000Y-114808000D02*
X158761700Y-114808000D01*
X152146000Y-108712000D02*
X152146000Y-110037300D01*
X156167200Y-143200700D02*
X155702000Y-143200700D01*
X156902700Y-142465200D02*
X156167200Y-143200700D01*
X156902700Y-137821000D02*
X156902700Y-142465200D01*
X156450700Y-137369000D02*
X156902700Y-137821000D01*
X155331500Y-137369000D02*
X156450700Y-137369000D01*
X154555000Y-136592500D02*
X155331500Y-137369000D01*
X154555000Y-134059700D02*
X154555000Y-136592500D01*
X152498400Y-132003100D02*
X154555000Y-134059700D01*
X150583700Y-132003100D02*
X152498400Y-132003100D01*
X149086300Y-133500500D02*
X150583700Y-132003100D01*
X149086300Y-138430000D02*
X149086300Y-133500500D01*
X148336000Y-138430000D02*
X149086300Y-138430000D01*
X155702000Y-144526000D02*
X155702000Y-143200700D01*
X144780000Y-144526000D02*
X144780000Y-143200700D01*
X143002000Y-132778500D02*
X144089300Y-132778500D01*
X144089300Y-132778500D02*
X146347400Y-135036600D01*
X146347400Y-135036600D02*
X146347400Y-142746900D01*
X146347400Y-142746900D02*
X145893600Y-143200700D01*
X145893600Y-143200700D02*
X144780000Y-143200700D01*
X171704000Y-144526000D02*
X171704000Y-143200700D01*
X169926000Y-132778500D02*
X171013300Y-132778500D01*
X171013300Y-132778500D02*
X173271400Y-135036600D01*
X173271400Y-135036600D02*
X173271400Y-142746900D01*
X173271400Y-142746900D02*
X172817600Y-143200700D01*
X172817600Y-143200700D02*
X171704000Y-143200700D01*
X135030400Y-110037300D02*
X136144000Y-110037300D01*
X134576600Y-110491100D02*
X135030400Y-110037300D01*
X134576600Y-118201400D02*
X134576600Y-110491100D01*
X136834700Y-120459500D02*
X134576600Y-118201400D01*
X137922000Y-120459500D02*
X136834700Y-120459500D01*
X136144000Y-108712000D02*
X136144000Y-110037300D01*
X148492400Y-110037300D02*
X149606000Y-110037300D01*
X148038600Y-110491100D02*
X148492400Y-110037300D01*
X148038600Y-118201400D02*
X148038600Y-110491100D01*
X150296700Y-120459500D02*
X148038600Y-118201400D01*
X151384000Y-120459500D02*
X150296700Y-120459500D01*
X149606000Y-108712000D02*
X149606000Y-110037300D01*
X161954400Y-110037300D02*
X163068000Y-110037300D01*
X161500600Y-110491100D02*
X161954400Y-110037300D01*
X161500600Y-118201400D02*
X161500600Y-110491100D01*
X163758700Y-120459500D02*
X161500600Y-118201400D01*
X164846000Y-120459500D02*
X163758700Y-120459500D01*
X163068000Y-108712000D02*
X163068000Y-110037300D01*
X148492400Y-110037300D02*
X149606000Y-110037300D01*
X148038600Y-110491100D02*
X148492400Y-110037300D01*
X148038600Y-118201400D02*
X148038600Y-110491100D01*
X150296700Y-120459500D02*
X148038600Y-118201400D01*
X151384000Y-120459500D02*
X150296700Y-120459500D01*
X149606000Y-108712000D02*
X149606000Y-110037300D01*
X159355600Y-143200700D02*
X158242000Y-143200700D01*
X159809400Y-142746900D02*
X159355600Y-143200700D01*
X159809400Y-135036600D02*
X159809400Y-142746900D01*
X157551300Y-132778500D02*
X159809400Y-135036600D01*
X156464000Y-132778500D02*
X157551300Y-132778500D01*
X158242000Y-144526000D02*
X158242000Y-143200700D01*
X140970000Y-142431600D02*
X140970000Y-141489700D01*
X140970000Y-141489700D02*
X141489700Y-140970000D01*
X140970000Y-144526000D02*
X140970000Y-142431600D01*
X140970000Y-142431600D02*
X140454700Y-142431600D01*
X142240000Y-140970000D02*
X141489700Y-140970000D01*
X167894000Y-142431600D02*
X167894000Y-141489700D01*
X167894000Y-141489700D02*
X168413700Y-140970000D01*
X167894000Y-144526000D02*
X167894000Y-142431600D01*
X167894000Y-142431600D02*
X167378700Y-142431600D01*
X169164000Y-140970000D02*
X168413700Y-140970000D01*
X138684000Y-112268000D02*
X139434300Y-112268000D01*
X139954000Y-110806400D02*
X140469300Y-110806400D01*
X139954000Y-108712000D02*
X139954000Y-110806400D01*
X139954000Y-111748300D02*
X139434300Y-112268000D01*
X139954000Y-110806400D02*
X139954000Y-111748300D01*
X152146000Y-112268000D02*
X152896300Y-112268000D01*
X153416000Y-110806400D02*
X153931300Y-110806400D01*
X153416000Y-108712000D02*
X153416000Y-110806400D01*
X153416000Y-111748300D02*
X152896300Y-112268000D01*
X153416000Y-110806400D02*
X153416000Y-111748300D01*
X165608000Y-112268000D02*
X166358300Y-112268000D01*
X166878000Y-110806400D02*
X167393300Y-110806400D01*
X166878000Y-108712000D02*
X166878000Y-110806400D01*
X166878000Y-111748300D02*
X166358300Y-112268000D01*
X166878000Y-110806400D02*
X166878000Y-111748300D01*
X152146000Y-112268000D02*
X152896300Y-112268000D01*
X153416000Y-110806400D02*
X153931300Y-110806400D01*
X153416000Y-108712000D02*
X153416000Y-110806400D01*
X153416000Y-111748300D02*
X152896300Y-112268000D01*
X153416000Y-110806400D02*
X153416000Y-111748300D01*
X155702000Y-140970000D02*
X154951700Y-140970000D01*
X154432000Y-142431600D02*
X153916700Y-142431600D01*
X154432000Y-144526000D02*
X154432000Y-142431600D01*
X154432000Y-141489700D02*
X154951700Y-140970000D01*
X154432000Y-142431600D02*
X154432000Y-141489700D01*
X142240000Y-139700000D02*
X142122800Y-139700000D01*
X142122800Y-139700000D02*
X139700000Y-142122800D01*
X139700000Y-142122800D02*
X139700000Y-142996500D01*
X139700000Y-142996500D02*
X139700000Y-143200700D01*
X139700000Y-144526000D02*
X139700000Y-143200700D01*
X169164000Y-139700000D02*
X169046800Y-139700000D01*
X169046800Y-139700000D02*
X166624000Y-142122800D01*
X166624000Y-142122800D02*
X166624000Y-142996500D01*
X166624000Y-142996500D02*
X166624000Y-143200700D01*
X166624000Y-144526000D02*
X166624000Y-143200700D01*
X141224000Y-108712000D02*
X141224000Y-110037300D01*
X141224000Y-110241500D02*
X141224000Y-110037300D01*
X141224000Y-111115200D02*
X141224000Y-110241500D01*
X138801200Y-113538000D02*
X141224000Y-111115200D01*
X138684000Y-113538000D02*
X138801200Y-113538000D01*
X154686000Y-108712000D02*
X154686000Y-110037300D01*
X154686000Y-110241500D02*
X154686000Y-110037300D01*
X154686000Y-111115200D02*
X154686000Y-110241500D01*
X152263200Y-113538000D02*
X154686000Y-111115200D01*
X152146000Y-113538000D02*
X152263200Y-113538000D01*
X168148000Y-108712000D02*
X168148000Y-110037300D01*
X168148000Y-110241500D02*
X168148000Y-110037300D01*
X168148000Y-111115200D02*
X168148000Y-110241500D01*
X165725200Y-113538000D02*
X168148000Y-111115200D01*
X165608000Y-113538000D02*
X165725200Y-113538000D01*
X154686000Y-108712000D02*
X154686000Y-110037300D01*
X154686000Y-110241500D02*
X154686000Y-110037300D01*
X154686000Y-111115200D02*
X154686000Y-110241500D01*
X152263200Y-113538000D02*
X154686000Y-111115200D01*
X152146000Y-113538000D02*
X152263200Y-113538000D01*
X153162000Y-144526000D02*
X153162000Y-143200700D01*
X153162000Y-142996500D02*
X153162000Y-143200700D01*
X153162000Y-142122800D02*
X153162000Y-142996500D01*
X155584800Y-139700000D02*
X153162000Y-142122800D01*
X155702000Y-139700000D02*
X155584800Y-139700000D01*
X134874000Y-139700000D02*
X135624300Y-139700000D01*
X135624300Y-139700000D02*
X135624300Y-139696200D01*
X135624300Y-139696200D02*
X135811800Y-139508700D01*
X161798000Y-139700000D02*
X162548300Y-139700000D01*
X162548300Y-139700000D02*
X162548300Y-139696200D01*
X162548300Y-139696200D02*
X162735800Y-139508700D01*
X149086300Y-139696200D02*
X149273800Y-139508700D01*
X149086300Y-139700000D02*
X149086300Y-139696200D01*
X158761700Y-113541800D02*
X158574200Y-113729300D01*
X158761700Y-113538000D02*
X158761700Y-113541800D01*
X145299700Y-113541800D02*
X145112200Y-113729300D01*
X145299700Y-113538000D02*
X145299700Y-113541800D01*
X146050000Y-113538000D02*
X145299700Y-113538000D01*
X159512000Y-113538000D02*
X158761700Y-113538000D01*
X172223700Y-113541800D02*
X172036200Y-113729300D01*
X172223700Y-113538000D02*
X172223700Y-113541800D01*
X172974000Y-113538000D02*
X172223700Y-113538000D01*
X158761700Y-113541800D02*
X158574200Y-113729300D01*
X158761700Y-113538000D02*
X158761700Y-113541800D01*
X159512000Y-113538000D02*
X158761700Y-113538000D01*
X148336000Y-139700000D02*
X149086300Y-139700000D01*
M02*
