M48
;DRILL file {KiCad 4.0.4+e1-6308~48~ubuntu16.04.1-stable} date Mon Nov 28 22:29:54 2016
;FORMAT={-:-/ absolute / metric / decimal}
FMAT,2
METRIC,TZ
T1C0.400
T2C0.700
T3C1.016
%
G90
G05
M71
T1
X135.812Y-139.509
X136.209Y-113.078
X137.312Y-143.024
X139.194Y-116.909
X139.577Y-139.265
X139.7Y-142.996
X140.196Y-140.515
X140.455Y-142.432
X140.469Y-110.806
X140.728Y-112.723
X141.224Y-110.242
X141.347Y-113.973
X141.73Y-136.329
X143.612Y-110.214
X144.715Y-140.16
X145.112Y-113.729
X149.274Y-139.509
X149.671Y-113.078
X149.671Y-113.078
X150.774Y-143.024
X152.656Y-116.909
X152.656Y-116.909
X153.039Y-139.265
X153.162Y-142.996
X153.658Y-140.515
X153.917Y-142.432
X153.931Y-110.806
X153.931Y-110.806
X154.19Y-112.723
X154.19Y-112.723
X154.686Y-110.242
X154.686Y-110.242
X154.809Y-113.973
X154.809Y-113.973
X155.192Y-136.329
X157.074Y-110.214
X157.074Y-110.214
X158.177Y-140.16
X158.574Y-113.729
X158.574Y-113.729
X162.736Y-139.509
X163.133Y-113.078
X164.236Y-143.024
X166.118Y-116.909
X166.501Y-139.265
X166.624Y-142.996
X167.12Y-140.515
X167.379Y-142.432
X167.393Y-110.806
X167.652Y-112.723
X168.148Y-110.242
X168.271Y-113.973
X168.654Y-136.329
X170.536Y-110.214
X171.639Y-140.16
X172.036Y-113.729
T2
X132.588Y-113.03
X132.588Y-114.3
X132.588Y-115.57
X132.588Y-116.84
X132.588Y-118.11
X132.588Y-119.38
X132.588Y-120.65
X132.588Y-132.588
X132.588Y-133.858
X132.588Y-135.128
X132.588Y-136.398
X132.588Y-137.668
X132.588Y-138.938
X132.588Y-140.208
T3
X126.746Y-109.22
X126.746Y-111.76
X126.746Y-114.3
X126.746Y-116.84
X126.746Y-119.38
X126.746Y-121.92
X126.746Y-124.46
X126.746Y-128.778
X126.746Y-131.318
X126.746Y-133.858
X126.746Y-136.398
X126.746Y-138.938
X126.746Y-141.478
X126.746Y-144.018
T0
M30
